<?xml version="1.0" standalone="no"?>
<!DOCTYPE svg PUBLIC "-//W3C//DTD SVG 20010904//EN"
 "http://www.w3.org/TR/2001/REC-SVG-20010904/DTD/svg10.dtd">
<svg version="1.0" xmlns="http://www.w3.org/2000/svg"
 width="626.000000pt" height="626.000000pt" viewBox="0 0 626.000000 626.000000"
 preserveAspectRatio="xMidYMid meet">

<g transform="translate(0.000000,626.000000) scale(0.100000,-0.100000)"
fill="#000000" stroke="none">
<path d="M2436 4834 c-14 -13 -16 -66 -16 -428 0 -387 1 -414 18 -429 19 -18
49 -22 68 -9 31 20 34 54 34 406 l0 356 1075 0 1075 0 0 -1435 0 -1435 -1075
0 -1075 0 0 84 c0 47 -4 96 -10 110 -12 33 -52 43 -85 22 l-26 -17 3 -152 c3
-150 3 -152 28 -164 20 -10 262 -12 1178 -10 1129 2 1154 2 1168 21 12 17 14
243 14 1542 0 1371 -2 1524 -16 1538 -14 14 -135 16 -1179 16 -1044 0 -1165
-2 -1179 -16z"/>
<path d="M2846 4364 c-24 -23 -20 -70 6 -88 20 -14 108 -16 753 -16 805 0 775
-2 775 60 0 63 43 60 -775 60 -663 0 -745 -2 -759 -16z"/>
<path d="M3276 3968 c-22 -31 -20 -45 9 -73 l24 -25 513 0 c571 0 558 -1 558
64 0 17 -5 37 -12 44 -9 9 -144 12 -544 12 l-533 0 -15 -22z"/>
<path d="M2483 3860 c-303 -32 -568 -240 -672 -526 -55 -152 -65 -339 -25
-489 36 -140 141 -308 248 -400 l55 -48 -41 -66 c-61 -98 -55 -95 -118 -55
-54 34 -83 41 -108 26 -23 -15 -362 -565 -368 -599 -20 -106 20 -190 119 -251
101 -62 213 -54 284 21 54 56 363 558 363 589 0 22 -10 35 -42 58 -92 64 -88
48 -39 129 24 39 47 74 52 77 5 2 22 -2 38 -10 16 -9 69 -27 118 -41 455 -132
925 153 1019 618 23 110 15 294 -16 392 -121 381 -477 616 -867 575z m259
-139 c516 -132 693 -775 318 -1150 -83 -83 -156 -131 -255 -167 -366 -133
-773 69 -891 443 -118 368 105 775 478 873 100 26 250 26 350 1z m-750 -1627
l87 -55 -23 -37 c-13 -20 -78 -125 -145 -232 -67 -107 -133 -205 -147 -217
-35 -32 -82 -30 -132 7 -91 66 -88 81 70 334 170 273 167 269 186 261 9 -3 56
-31 104 -61z"/>
<path d="M3530 3592 c-25 -20 -30 -63 -10 -87 11 -13 70 -15 424 -15 307 0
415 3 424 12 7 7 12 27 12 44 0 64 0 64 -436 64 -363 0 -393 -1 -414 -18z"/>
<path d="M3532 3204 c-25 -17 -31 -71 -10 -92 9 -9 116 -12 419 -12 448 0 439
-1 439 60 0 59 -4 60 -435 60 -337 0 -394 -2 -413 -16z"/>
<path d="M3534 2822 c-33 -22 -34 -83 -1 -104 7 -4 193 -8 414 -8 440 0 433
-1 433 59 0 61 3 61 -436 61 -219 0 -404 -4 -410 -8z"/>
<path d="M3279 2419 c-24 -24 -20 -65 8 -86 13 -10 137 -13 538 -13 493 0 523
1 538 18 21 23 22 66 1 86 -14 14 -76 16 -540 16 -518 0 -524 0 -545 -21z"/>
</g>
</svg>
