<?xml version="1.0" standalone="no"?>
<!DOCTYPE svg PUBLIC "-//W3C//DTD SVG 20010904//EN"
 "http://www.w3.org/TR/2001/REC-SVG-20010904/DTD/svg10.dtd">
<svg version="1.0" xmlns="http://www.w3.org/2000/svg"
 width="200.000000pt" height="200.000000pt" viewBox="0 0 200.000000 200.000000"
 preserveAspectRatio="xMidYMid meet">

<g transform="translate(0.000000,200.000000) scale(0.100000,-0.100000)"
fill="#000000" stroke="none">
<path d="M1091 871 c-89 -165 -161 -303 -161 -306 0 -3 56 -5 123 -5 l124 0
68 146 c38 80 73 147 77 150 4 3 25 -32 47 -78 21 -46 53 -113 70 -150 l32
-68 126 0 c99 0 123 3 116 13 -6 6 -55 100 -111 207 -55 107 -123 238 -151
290 l-50 95 -74 3 -75 3 -161 -300z"/>
</g>
</svg>
