<?xml version="1.0" standalone="no"?>
<!DOCTYPE svg PUBLIC "-//W3C//DTD SVG 20010904//EN"
 "http://www.w3.org/TR/2001/REC-SVG-20010904/DTD/svg10.dtd">
<svg version="1.0" xmlns="http://www.w3.org/2000/svg"
 width="833.000000pt" height="757.000000pt" viewBox="0 0 833.000000 757.000000"
 preserveAspectRatio="xMidYMid meet">

<g transform="translate(0.000000,757.000000) scale(0.100000,-0.100000)"
fill="#000000" stroke="none">
<path d="M2772 6549 c-91 -46 -145 -156 -123 -254 15 -67 59 -126 116 -156
l45 -24 0 -141 0 -141 -97 -5 c-112 -6 -168 -27 -228 -85 -60 -58 -85 -123
-85 -220 0 -45 -3 -88 -6 -97 -5 -14 -28 -16 -145 -16 l-139 0 -19 39 c-40 77
-128 131 -215 131 -74 0 -163 -55 -197 -122 -27 -52 -35 -134 -19 -183 16 -48
72 -111 124 -137 49 -25 135 -28 187 -6 51 22 106 74 121 114 l12 34 142 0
c120 0 143 -2 148 -16 8 -20 8 -398 0 -418 -5 -14 -28 -16 -145 -16 l-139 0
-19 39 c-39 75 -130 131 -215 131 -41 0 -130 -38 -159 -68 -57 -59 -80 -152
-57 -231 48 -170 265 -223 387 -95 24 24 45 55 49 69 l6 25 143 0 c121 0 144
-2 149 -16 8 -20 8 -382 0 -411 -6 -22 -10 -23 -145 -23 l-139 0 -19 39 c-84
163 -316 170 -409 12 -22 -38 -27 -58 -27 -116 0 -58 5 -78 27 -116 33 -56 87
-95 156 -110 45 -11 60 -10 108 5 65 21 128 73 146 122 l12 34 142 0 c120 0
143 -2 148 -16 3 -9 6 -52 6 -97 0 -97 18 -144 79 -210 58 -63 124 -89 239
-95 l92 -5 0 -141 0 -141 -44 -23 c-24 -13 -59 -44 -77 -70 -27 -38 -34 -58
-37 -108 -5 -77 10 -125 57 -177 86 -96 222 -104 321 -20 127 109 100 306 -52
384 l-38 19 0 140 0 140 246 0 247 0 -41 -44 c-45 -48 -103 -157 -122 -224
-35 -131 -29 -288 14 -414 28 -79 100 -193 149 -234 l30 -25 -18 -62 c-10 -35
-20 -111 -23 -172 -5 -123 14 -218 64 -318 84 -168 248 -286 397 -287 l47 0 0
-73 c0 -222 125 -434 309 -525 73 -36 78 -37 186 -37 105 0 114 2 177 33 134
66 234 185 284 338 l29 89 0 1495 c0 1420 -1 1498 -18 1560 -54 191 -189 338
-359 394 -13 4 -18 16 -18 46 l0 40 144 0 144 0 12 -29 c30 -75 122 -133 209
-133 135 -1 234 97 234 232 0 69 -27 125 -85 174 -108 93 -271 64 -343 -61
l-30 -52 -141 -1 -142 0 -4 103 c-4 111 -20 154 -79 221 -35 41 -116 83 -177
92 l-43 7 3 -69 c3 -68 3 -68 35 -75 46 -9 77 -32 104 -76 23 -36 24 -49 27
-220 l4 -182 -29 -6 c-15 -3 -50 -13 -78 -21 -198 -64 -354 -300 -355 -535 l0
-66 -58 -16 c-167 -46 -314 -222 -358 -427 -16 -75 -15 -242 1 -283 7 -17 -14
-17 -438 -15 -432 3 -446 4 -473 24 -15 11 -37 33 -48 48 -21 27 -21 35 -21
851 0 820 0 824 21 852 11 15 36 38 54 51 l33 22 724 0 723 0 9 23 c5 12 23
31 40 42 32 21 42 55 16 55 -8 0 -15 -7 -15 -15 0 -10 -10 -15 -26 -15 -24 0
-26 2 -19 33 4 17 10 93 12 167 l5 135 46 30 c123 80 149 242 54 347 -87 97
-217 106 -328 22 -68 -51 -95 -181 -55 -269 19 -43 85 -109 120 -120 20 -6 21
-13 21 -151 l0 -144 -223 0 -223 0 -2 144 -1 144 31 13 c75 31 138 123 138
203 0 90 -56 182 -134 217 -57 26 -144 25 -201 -2 -163 -77 -172 -313 -17
-404 l51 -30 1 -143 0 -142 -222 2 -223 3 -3 138 -3 138 32 17 c96 52 133 113
134 219 0 63 -3 76 -30 114 -17 24 -50 57 -73 74 -37 25 -54 30 -115 33 -58 2
-80 -1 -115 -19z m163 -131 c57 -51 47 -136 -21 -164 -76 -32 -145 27 -130
110 13 67 100 98 151 54z m574 6 c13 -9 30 -32 38 -51 12 -31 12 -38 -4 -71
-25 -51 -77 -71 -126 -47 -53 25 -71 83 -43 134 27 48 92 65 135 35z m590 -11
c41 -39 48 -80 19 -123 -40 -58 -108 -62 -153 -8 -76 90 48 211 134 131z
m-2139 -1010 c47 -60 1 -153 -76 -153 -49 0 -96 44 -97 92 -3 97 113 137 173
61z m3141 8 c21 -22 29 -39 29 -66 0 -50 -44 -95 -94 -95 -85 0 -131 106 -71
165 36 37 97 35 136 -4z m-545 -369 c93 -48 168 -143 204 -260 20 -63 20 -96
20 -1536 0 -1582 2 -1515 -51 -1622 -36 -71 -112 -149 -177 -181 -156 -76
-344 2 -431 179 -47 95 -70 220 -55 296 8 40 51 55 149 55 98 0 165 -32 250
-118 38 -38 73 -65 85 -65 22 0 70 41 70 61 0 57 -107 164 -217 217 -75 35
-83 37 -183 37 -88 0 -119 -5 -194 -29 -102 -33 -162 -32 -239 4 -158 74 -260
293 -230 491 6 39 14 73 17 76 3 4 27 -12 53 -33 222 -185 471 -289 713 -301
97 -5 106 -4 124 15 10 12 19 33 19 48 0 47 -27 60 -154 72 -106 10 -271 52
-318 82 -18 11 3 70 57 160 81 133 187 220 268 220 38 0 87 35 80 59 -2 9 -7
28 -10 44 -9 41 -36 35 -36 -8 0 -34 -1 -35 -40 -35 -39 0 -40 1 -40 35 0 24
-5 35 -15 35 -10 0 -15 -11 -15 -35 0 -34 -1 -35 -39 -35 -29 0 -40 4 -43 17
-3 16 -4 16 -20 0 -9 -9 -21 -17 -26 -17 -16 0 -119 -114 -159 -176 -21 -33
-51 -88 -67 -122 -16 -34 -34 -62 -38 -62 -25 0 -204 146 -354 289 -113 107
-160 295 -119 470 16 67 61 159 98 201 25 29 96 85 100 79 58 -95 114 -158
190 -215 55 -41 61 -43 107 -37 l50 6 0 -30 c0 -37 30 -53 98 -53 30 0 58 -7
77 -20 41 -27 75 -27 68 0 -5 18 0 20 36 20 32 0 41 -4 41 -17 1 -14 4 -12 15
7 20 35 18 47 -8 74 -17 16 -41 25 -83 31 -151 18 -317 101 -402 201 -156 182
-189 432 -85 638 35 70 122 151 189 176 30 11 61 20 68 20 17 0 96 -171 134
-290 35 -108 62 -252 62 -323 0 -84 64 -124 116 -72 24 24 25 30 19 93 -6 65
-20 157 -31 216 l-6 29 75 -6 c49 -3 97 -15 138 -32 84 -36 116 -37 141 -4 59
78 -85 161 -308 176 l-90 6 -23 63 c-12 35 -43 103 -68 151 -54 105 -62 164
-39 273 35 166 133 287 266 331 46 15 171 4 216 -19z m-2605 -211 c78 -79 -12
-196 -115 -150 -38 18 -60 71 -46 114 23 71 107 89 161 36z m-6 -574 c18 -15
28 -36 32 -64 5 -37 2 -45 -25 -73 -50 -50 -127 -37 -157 27 -44 91 73 177
150 110z m1001 -998 c47 -45 39 -114 -18 -149 -43 -27 -84 -20 -120 20 -40 43
-37 83 7 127 31 31 40 35 72 30 20 -4 46 -16 59 -28z"/>
<path d="M4152 5718 c-16 -16 -15 -28 3 -28 8 0 15 9 15 20 0 23 -2 24 -18 8z"/>
<path d="M5407 5194 c-135 -32 -250 -130 -323 -275 -74 -147 -69 -34 -69
-1679 0 -1648 -5 -1525 71 -1676 89 -178 247 -284 424 -284 177 0 335 106 424
284 44 88 64 167 69 271 l4 80 68 7 c268 27 474 337 435 655 -6 47 -18 105
-26 129 l-15 45 59 64 c109 120 157 249 156 430 0 103 -4 132 -28 202 -43 131
-147 268 -244 322 -12 7 -12 18 2 73 36 144 12 342 -56 470 -64 121 -184 223
-299 255 l-56 15 -1 69 c-5 257 -176 494 -392 543 -82 19 -126 19 -203 0z
m234 -152 c133 -65 228 -240 229 -420 0 -54 -6 -74 -43 -150 -24 -48 -56 -119
-71 -158 l-28 -71 -92 -6 c-108 -7 -230 -43 -281 -82 -41 -31 -47 -73 -15
-105 26 -26 48 -25 107 4 60 31 122 45 189 46 l51 0 -14 -57 c-7 -32 -16 -106
-20 -164 -6 -103 -5 -106 18 -122 32 -23 62 -21 86 6 15 17 23 47 32 129 12
111 38 224 72 318 43 117 102 240 115 240 34 0 126 -44 167 -80 268 -236 173
-722 -174 -888 -80 -38 -199 -72 -253 -72 -54 0 -88 -77 -50 -114 34 -35 212
-7 341 54 122 56 228 144 295 243 45 66 51 66 122 -8 173 -178 170 -520 -7
-687 -178 -167 -327 -288 -354 -288 -5 0 -20 25 -32 55 -58 140 -195 297 -302
348 -31 15 -82 29 -112 33 -51 6 -58 4 -81 -19 -52 -52 -23 -101 68 -118 32
-6 75 -21 95 -34 77 -49 163 -161 215 -279 28 -64 32 -59 -65 -95 -80 -30
-173 -49 -274 -57 -100 -7 -125 -20 -125 -66 0 -49 30 -68 109 -68 235 0 508
109 733 293 32 26 60 47 62 47 12 0 26 -81 26 -149 0 -236 -147 -432 -337
-448 -46 -3 -74 1 -133 22 -198 69 -382 31 -520 -107 -62 -61 -77 -91 -66
-132 7 -30 56 -52 83 -37 10 5 43 35 73 66 65 67 104 89 185 104 62 12 167 0
193 -21 15 -13 16 -127 1 -200 -27 -131 -119 -258 -224 -308 -68 -32 -179 -33
-248 -2 -105 48 -201 182 -227 317 -8 43 -10 464 -8 1525 l3 1465 23 58 c49
120 136 217 228 252 58 22 177 16 235 -13z"/>
</g>
</svg>
