<?xml version="1.0" standalone="no"?>
<!DOCTYPE svg PUBLIC "-//W3C//DTD SVG 20010904//EN"
 "http://www.w3.org/TR/2001/REC-SVG-20010904/DTD/svg10.dtd">
<svg version="1.0" xmlns="http://www.w3.org/2000/svg"
 width="461.000000pt" height="292.000000pt" viewBox="0 0 461.000000 292.000000"
 preserveAspectRatio="xMidYMid meet">

<g transform="translate(0.000000,292.000000) scale(0.100000,-0.100000)"
fill="#000000" stroke="none">
<path d="M3225 2540 c-184 -13 -245 -35 -245 -84 0 -33 16 -49 129 -125 108
-73 133 -81 179 -57 40 21 255 243 250 258 -5 16 -158 19 -313 8z"/>
<path d="M3635 2521 c-47 -29 -259 -252 -274 -289 -24 -58 -1 -87 160 -201
121 -87 147 -101 181 -101 21 0 51 6 66 14 15 8 98 86 184 173 170 171 199
213 176 260 -11 23 -41 38 -192 95 -195 74 -247 83 -301 49z"/>
<path d="M2745 2416 c-73 -23 -116 -51 -280 -187 -170 -140 -195 -168 -195
-217 0 -48 37 -86 190 -197 162 -118 195 -133 257 -116 36 10 69 40 240 222
109 116 204 221 211 235 9 16 10 30 3 42 -16 30 -217 201 -255 217 -43 18
-116 18 -171 1z"/>
<path d="M4208 2292 c-42 -28 -367 -373 -385 -408 -27 -54 -13 -76 101 -158
155 -114 136 -120 374 117 187 185 222 227 222 263 0 18 -40 57 -148 145 -80
65 -115 73 -164 41z"/>
<path d="M3225 2110 c-11 -4 -113 -102 -227 -217 -197 -198 -208 -211 -208
-247 0 -20 4 -45 10 -55 9 -18 206 -165 280 -210 43 -26 85 -27 127 -3 45 24
399 404 407 436 10 42 -12 74 -114 164 -142 126 -166 142 -214 141 -23 0 -50
-4 -61 -9z"/>
<path d="M2134 1920 c-25 -10 -417 -420 -445 -465 -46 -73 -21 -108 169 -246
164 -119 197 -132 264 -110 25 8 88 69 233 222 109 116 206 226 216 245 21 41
16 66 -22 103 -33 34 -231 189 -286 225 -43 28 -98 40 -129 26z"/>
<path d="M3695 1776 c-39 -17 -410 -405 -432 -452 -16 -32 -16 -38 -2 -62 17
-30 190 -159 225 -168 14 -4 38 1 58 12 44 24 412 378 431 415 20 38 19 82 -2
107 -20 22 -167 133 -200 150 -27 15 -40 15 -78 -2z"/>
<path d="M2650 1539 c-31 -12 -436 -414 -456 -451 -20 -38 -17 -81 6 -111 18
-23 152 -124 269 -204 41 -28 103 -30 149 -5 17 9 119 111 226 225 194 207
216 239 201 286 -7 22 -105 116 -215 206 -75 61 -126 77 -180 54z"/>
<path d="M1545 1310 c-16 -3 -39 -11 -50 -18 -38 -21 -484 -477 -495 -507 -16
-41 -5 -87 28 -118 39 -37 292 -218 320 -228 38 -15 90 -10 130 10 36 19 475
471 499 514 18 32 16 61 -6 89 -18 23 -288 225 -328 246 -30 15 -66 20 -98 12z"/>
<path d="M3112 1204 c-41 -21 -428 -425 -449 -469 -27 -56 -13 -77 99 -150
114 -75 147 -85 196 -58 18 10 124 107 236 216 219 211 240 240 214 294 -16
34 -197 172 -235 178 -16 3 -42 -2 -61 -11z"/>
<path d="M2045 931 c-56 -26 -480 -467 -490 -509 -8 -39 8 -70 43 -83 60 -23
213 -50 317 -56 175 -9 197 0 360 153 74 69 144 141 155 159 22 35 26 76 10
105 -16 29 -245 219 -285 236 -44 18 -61 18 -110 -5z"/>
<path d="M2390 464 l-155 -156 80 7 c108 9 236 31 316 55 65 19 159 74 167 98
2 6 -9 23 -25 38 -42 40 -175 114 -203 114 -19 0 -61 -36 -180 -156z"/>
</g>
</svg>
