<?xml version="1.0" standalone="no"?>
<!DOCTYPE svg PUBLIC "-//W3C//DTD SVG 20010904//EN"
 "http://www.w3.org/TR/2001/REC-SVG-20010904/DTD/svg10.dtd">
<svg version="1.0" xmlns="http://www.w3.org/2000/svg"
 width="580.000000pt" height="386.000000pt" viewBox="0 0 580.000000 386.000000"
 preserveAspectRatio="xMidYMid meet">

<g transform="translate(0.000000,386.000000) scale(0.100000,-0.100000)"
fill="#000000" stroke="none">
<path d="M2116 2914 c-14 -14 -16 -105 -16 -850 l0 -834 -88 0 c-95 0 -112 -7
-112 -50 0 -43 17 -50 112 -50 l88 0 0 -90 c0 -78 2 -91 19 -100 58 -31 81 -1
81 106 l0 84 831 0 c553 0 837 3 850 10 22 12 26 59 7 78 -8 8 -45 12 -100 12
l-88 0 0 534 c0 473 -2 536 -16 550 -12 13 -40 16 -139 16 -113 0 -125 -2
-135 -19 -6 -13 -10 -204 -10 -550 l0 -531 -100 0 -100 0 0 390 c0 375 -1 390
-19 400 -28 15 -254 13 -269 -2 -9 -9 -12 -112 -12 -400 l0 -388 -100 0 -100
0 0 234 c0 200 -2 237 -16 250 -12 13 -40 16 -139 16 -113 0 -125 -2 -135 -19
-6 -12 -10 -110 -10 -250 l0 -231 -100 0 -100 0 0 834 c0 745 -2 836 -16 850
-8 9 -24 16 -34 16 -10 0 -26 -7 -34 -16z m1484 -1184 l0 -500 -50 0 -50 0 0
500 0 500 50 0 50 0 0 -500z m-500 -150 l0 -350 -50 0 -50 0 0 350 0 350 50 0
50 0 0 -350z m-500 -150 l0 -200 -50 0 -50 0 0 200 0 200 50 0 50 0 0 -200z"/>
<path d="M3325 2630 l-200 -200 -147 0 -147 0 -216 -161 c-172 -129 -215 -166
-215 -184 0 -29 25 -55 51 -55 11 0 109 68 219 150 l199 150 153 0 152 0 213
212 c174 174 213 217 213 240 0 28 -23 48 -57 48 -10 0 -104 -86 -218 -200z"/>
</g>
</svg>
